<!--?xml version="1.0" encoding="utf-8"?-->
<!-- Generator: Adobe Illustrator 18.1.1, SVG Export Plug-In . SVG Version: 6.00 Build 0)  -->

<svg version="1.1" id="_x32_" xmlns="http://www.w3.org/2000/svg" xmlns:xlink="http://www.w3.org/1999/xlink" x="0px" y="0px" viewBox="0 0 512 512" style="width: 256px; height: 256px; opacity: 1;" xml:space="preserve">
<style type="text/css">
	.st0{fill:#4B4B4B;}
</style>
<g>
	<path class="st0" d="M256,245.496c-13.658,0.018-24.718,11.069-24.735,24.744c0.018,13.64,11.077,24.7,24.735,24.726
		c13.658-0.025,24.718-11.085,24.735-24.726C280.718,256.564,269.658,245.513,256,245.496z" style="fill: rgb(255, 255, 255);"></path>
	<path class="st0" d="M437.026,74.974C390.795,28.701,326.59-0.018,256,0C185.41-0.018,121.205,28.701,74.974,74.974
		C28.701,121.205-0.018,185.418,0,256c-0.018,70.582,28.701,134.803,74.974,181.017C121.205,483.29,185.41,512.018,256,512
		c70.59,0.018,134.795-28.71,181.026-74.983C483.299,390.803,512.017,326.582,512,256
		C512.017,185.418,483.299,121.205,437.026,74.974z M221.992,385.239c-2.505,33.299-12.36,56.88-46.659,41.992
		c-19.82-9.368-37.752-22.077-53.128-37.436c-16.444-16.461-29.854-35.863-39.368-57.368c-12.863-33.829,17.47-45.88,71.138-35.606
		C212.094,307.948,224.462,352.462,221.992,385.239z M256,309.795c-21.864,0-39.573-17.71-39.582-39.556
		c0.009-21.88,17.718-39.59,39.582-39.59c21.863,0,39.573,17.71,39.582,39.59C295.573,292.085,277.863,309.795,256,309.795z
		 M429.163,332.427c-9.514,21.505-22.924,40.906-39.368,57.368c-15.376,15.359-33.308,28.068-53.128,37.436
		c-34.3,14.888-44.154-8.693-46.658-41.992c-2.47-32.778,9.898-77.291,68.017-88.418
		C411.693,286.547,442.026,298.598,429.163,332.427z M367.308,230.034C326.555,218.649,281.975,207.77,256,207.77
		c-25.974,0-70.555,10.88-111.308,22.264C91.513,244.88,69.077,218,80.206,185.846c9.59-24.018,23.974-45.581,42-63.641
		C156.547,87.914,203.641,66.803,256,66.787c52.359,0.016,99.453,21.128,133.795,55.418c18.026,18.06,32.41,39.624,42,63.641
		C442.923,218,420.487,244.88,367.308,230.034z" style="fill: rgb(255, 255, 255);"></path>
</g>
</svg>
